<svg width="1792" height="1792" xmlns="http://www.w3.org/2000/svg">

 <g>
  <title>background</title>
  <rect fill="none" id="canvas_background" height="402" width="582" y="-1" x="-1"/>
 </g>
 <g>
  <title>Layer 1</title>
  <path fill="#d15337" id="svg_1" d="m1546,1050q46,26 59.5,77.5t-12.5,97.5l-64,110q-26,46 -77.5,59.5t-97.5,-12.5l-266,-153l0,307q0,52 -38,90t-90,38l-128,0q-52,0 -90,-38t-38,-90l0,-307l-266,153q-46,26 -97.5,12.5t-77.5,-59.5l-64,-110q-26,-46 -12.5,-97.5t59.5,-77.5l266,-154l-266,-154q-46,-26 -59.5,-77.5t12.5,-97.5l64,-110q26,-46 77.5,-59.5t97.5,12.5l266,153l0,-307q0,-52 38,-90t90,-38l128,0q52,0 90,38t38,90l0,307l266,-153q46,-26 97.5,-12.5t77.5,59.5l64,110q26,46 12.5,97.5t-59.5,77.5l-266,154l266,154z"/>
 </g>
</svg>